HIERARCHY
ROOT Hips
{
  OFFSET 0.854965 38.8999 93.6743
  CHANNELS 6 Xposition Yposition Zposition Zrotation Xrotation Yrotation
  JOINT LeftHip
  {
    OFFSET 3.43 0 0
    CHANNELS 6 Xposition Yposition Zposition Zrotation Xrotation Yrotation
    JOINT LeftKnee
    {
      OFFSET 0 -18.47 0
      CHANNELS 6 Xposition Yposition Zposition Zrotation Xrotation Yrotation
      JOINT LeftAnkle
      {
        OFFSET 0 -17.95 0
        CHANNELS 6 Xposition Yposition Zposition Zrotation Xrotation Yrotation
        End Site
        {
          OFFSET 0 -3.12 0
        }
      }
    }
  }
  JOINT RightHip
  {
    OFFSET -3.43 0 0
    CHANNELS 6 Xposition Yposition Zposition Zrotation Xrotation Yrotation
    JOINT RightKnee
    {
      OFFSET 0 -18.47 0
      CHANNELS 6 Xposition Yposition Zposition Zrotation Xrotation Yrotation
      JOINT RightAnkle
      {
        OFFSET 0 -17.95 0
        CHANNELS 6 Xposition Yposition Zposition Zrotation Xrotation Yrotation
        End Site
        {
          OFFSET 0 -3.12 0
        }
      }
    }
  }
  JOINT Chest
  {
    OFFSET 0 4.57 0
    CHANNELS 6 Xposition Yposition Zposition Zrotation Xrotation Yrotation
    JOINT CS_BVH
    {
      OFFSET 0 6.57 0
      CHANNELS 6 Xposition Yposition Zposition Zrotation Xrotation Yrotation
      JOINT LeftCollar
      {
        OFFSET 1.06 4.19 1.76
        CHANNELS 6 Xposition Yposition Zposition Zrotation Xrotation Yrotation
        JOINT LeftShoulder
        {
          OFFSET 5.81 0 0
          CHANNELS 6 Xposition Yposition Zposition Zrotation Xrotation Yrotation
          JOINT LeftElbow
          {
            OFFSET 0 -12.08 0
            CHANNELS 6 Xposition Yposition Zposition Zrotation Xrotation Yrotation
            JOINT LeftWrist
            {
              OFFSET 0 -9.82 0
              CHANNELS 6 Xposition Yposition Zposition Zrotation Xrotation Yrotation
              End Site
              {
                OFFSET 0 -7.37 0
              }
            }
          }
        }
      }
      JOINT RightCollar
      {
        OFFSET -1.06 4.19 1.76
        CHANNELS 6 Xposition Yposition Zposition Zrotation Xrotation Yrotation
        JOINT RightShoulder
        {
          OFFSET -6.06 0 0
          CHANNELS 6 Xposition Yposition Zposition Zrotation Xrotation Yrotation
          JOINT RightElbow
          {
            OFFSET 0 -11.08 0
            CHANNELS 6 Xposition Yposition Zposition Zrotation Xrotation Yrotation
            JOINT RightWrist
            {
              OFFSET 0 -9.82 0
              CHANNELS 6 Xposition Yposition Zposition Zrotation Xrotation Yrotation
              End Site
              {
                OFFSET 0 -7.14001 0
              }
            }
          }
        }
      }
      JOINT Neck
      {
        OFFSET 0 4.05 0
        CHANNELS 6 Xposition Yposition Zposition Zrotation Xrotation Yrotation
        JOINT Head
        {
          OFFSET 0 5.19 0
          CHANNELS 6 Xposition Yposition Zposition Zrotation Xrotation Yrotation
          End Site
          {
            OFFSET 0 4.14001 0
          }
        }
      }
    }
  }
}
MOTION
Frames:	10
Frame Time:	0.0333333
0.148477 38.2755 8.48167 -0.957501 -3.99761 5.23516 3.43 2.13163e-014 -8.88178e-016 6.59392 -16.7706 8.46262 -5.28466e-014 -18.47 3.95239e-014 13.7039 80.5948 -8.4526 -6.27942e-013 -17.95 3.95239e-013 0.59462 -6.79618 -0.0890707 -3.43 2.13163e-014 6.21725e-015 6.87767 -10.1483 -2.03128 -9.23706e-014 -18.47 -9.23706e-014 -2.12826 16.2188 -2.74365 -3.23297e-013 -17.95 -8.8729e-013 3.97277 -10.9936 -0.172478 1.88738e-015 4.57 1.06581e-014 -6.78021 -3.1773 -1.34623 4.32987e-015 6.57 -1.77636e-015 11.2539 9.70816 -4.83269 1.06 4.19 1.76 -14.0376 -0.90222 9.13972 5.81 -7.10543e-015 -1.15463e-014 15.4129 -28.0997 -37.7007 2.67164e-012 -12.08 -9.43245e-013 -0.0821266 -1.48957 -1.3589 5.24807e-011 -9.82 -1.44627e-011 -1.60555e-010 7.13487e-010 1.28578e-009 -1.06 4.19 1.76 17.9064 0.322061 -2.2005 -6.06 0 7.54952e-015 -32.8196 -18.9431 26.9167 1.54188e-012 -11.08 7.30083e-013 16.3119 -6.84026 3.93308 2.68372e-011 -9.82 1.13869e-011 3.2844e-010 1.94701e-010 -1.83818e-009 1.0103e-014 4.05 -8.88178e-016 -26.7074 -11.5232 -19.2698 3.27516e-014 5.19 -8.88178e-016 18.1676 -4.05196 -26.8219 
-0.122937 38.1616 9.93326 -1.8942 -3.83549 5.0991 3.43 2.13163e-014 -8.88178e-016 8.40497 -23.2234 11.4338 -5.28466e-014 -18.47 3.95239e-014 39.2668 84.456 -30.7888 -6.27942e-013 -17.95 3.95239e-013 0.623878 -4.88154 -0.0949167 -3.43 2.13163e-014 6.21725e-015 7.41156 -10.6171 -2.90496 -9.23706e-014 -18.47 -9.23706e-014 -0.156703 21.0518 -3.62519 -3.23297e-013 -17.95 -8.8729e-013 3.20633 -13.4624 0.164888 1.88738e-015 4.57 1.06581e-014 -3.78874 -4.04134 -0.588193 4.32987e-015 6.57 -1.77636e-015 9.11202 11.6438 -3.17278 1.06 4.19 1.76 -14.4964 -0.834558 8.5108 5.81 -7.10543e-015 -1.15463e-014 16.7561 -27.6246 -34.1393 2.67164e-012 -12.08 -9.43245e-013 0.191619 -0.000283554 -0.0789599 5.24807e-011 -9.82 -1.44627e-011 -1.60555e-010 7.13487e-010 1.28578e-009 -1.06 4.19 1.76 18.2623 0.393455 -1.71789 -6.06 0 7.54952e-015 -32.5429 -24.5473 33.1456 1.54188e-012 -11.08 7.30083e-013 18.9879 -9.65038 4.43248 2.68372e-011 -9.82 1.13869e-011 3.2844e-010 1.94701e-010 -1.83818e-009 1.0103e-014 4.05 -8.88178e-016 -27.111 -10.3091 -19.8947 3.27516e-014 5.19 -8.88178e-016 19.0626 -3.85455 -28.0317 
-0.288592 38.1348 11.4474 -1.96967 -4.01781 4.09569 3.43 2.13163e-014 -8.88178e-016 9.5012 -27.591 13.2626 -5.28466e-014 -18.47 3.95239e-014 39.2382 85.4494 -31.318 -6.27942e-013 -17.95 3.95239e-013 0.608093 -4.27941 -0.155016 -3.43 2.13163e-014 6.21725e-015 7.46174 -9.38348 -1.84337 -9.23706e-014 -18.47 -9.23706e-014 1.2803 23.603 -4.67974 -3.23297e-013 -17.95 -8.8729e-013 2.76815 -15.0892 0.387565 1.88738e-015 4.57 1.06581e-014 -1.39624 -3.88374 0.540827 4.32987e-015 6.57 -1.77636e-015 6.62174 12.4413 -1.1205 1.06 4.19 1.76 -15.079 -0.850244 8.40074 5.81 -7.10543e-015 -1.15463e-014 19.2544 -26.1093 -30.7309 2.67164e-012 -12.08 -9.43245e-013 0.567463 -0.000368339 0.500879 5.24807e-011 -9.82 -1.44627e-011 -1.60555e-010 7.13487e-010 1.28578e-009 -1.06 4.19 1.76 17.8065 0.461449 -1.20972 -6.06 0 7.54952e-015 -32.4931 -30.3298 38.3021 1.54188e-012 -11.08 7.30083e-013 20.4478 -12.1364 4.80383 2.68372e-011 -9.82 1.13869e-011 3.2844e-010 1.94701e-010 -1.83818e-009 1.0103e-014 4.05 -8.88178e-016 -28.2824 -8.13184 -19.774 3.27516e-014 5.19 -8.88178e-016 20.5835 -4.59925 -29.0399 
-0.416135 38.22 12.9755 -1.35729 -4.16905 2.74875 3.43 2.13163e-014 -8.88178e-016 9.7517 -30.2606 13.8526 -5.28466e-014 -18.47 3.95239e-014 7.68391 83.6662 -3.15623 -6.27942e-013 -17.95 3.95239e-013 0.471438 -4.91803 -0.238024 -3.43 2.13163e-014 6.21725e-015 6.88153 -7.26379 -1.25306 -9.23706e-014 -18.47 -9.23706e-014 2.16229 24.7546 -4.43411 -3.23297e-013 -17.95 -8.8729e-013 2.33315 -15.8354 0.522571 1.88738e-015 4.57 1.06581e-014 0.599488 -2.88386 1.95789 4.32987e-015 6.57 -1.77636e-015 3.2782 11.6958 1.39883 1.06 4.19 1.76 -15.3683 -0.854884 8.34381 5.81 -7.10543e-015 -1.15463e-014 22.272 -23.9049 -27.5685 2.67164e-012 -12.08 -9.43245e-013 0.695682 -0.000355376 0.637929 5.24807e-011 -9.82 -1.44627e-011 -1.60555e-010 7.13487e-010 1.28578e-009 -1.06 4.19 1.76 17.0086 0.45128 -1.21051 -6.06 0 7.54952e-015 -31.8716 -34.7943 42.1912 1.54188e-012 -11.08 7.30083e-013 18.9386 -14.922 5.17473 2.68372e-011 -9.82 1.13869e-011 3.2844e-010 1.94701e-010 -1.83818e-009 1.0103e-014 4.05 -8.88178e-016 -28.479 -5.18661 -18.9777 3.27516e-014 5.19 -8.88178e-016 21.4205 -5.90843 -29.256 
-0.484954 38.3356 14.4605 -0.670219 -3.83839 1.28753 3.43 2.13163e-014 -8.88178e-016 9.87391 -32.0305 12.1275 -5.28466e-014 -18.47 3.95239e-014 -19.7484 77.4125 19.6941 -6.27942e-013 -17.95 3.95239e-013 0.20003 -6.35504 -0.276183 -3.43 2.13163e-014 6.21725e-015 6.30995 -5.41868 -1.21605 -9.23706e-014 -18.47 -9.23706e-014 2.06008 24.9342 -4.19332 -3.23297e-013 -17.95 -8.8729e-013 2.18722 -15.9594 0.581821 1.88738e-015 4.57 1.06581e-014 3.09917 -1.41166 3.33887 4.32987e-015 6.57 -1.77636e-015 -1.0452 9.40619 4.02367 1.06 4.19 1.76 -15.1618 -0.802628 8.06506 5.81 -7.10543e-015 -1.15463e-014 25.5118 -20.5352 -25.0985 2.67164e-012 -12.08 -9.43245e-013 0.230288 -0.000280413 0.137052 5.24807e-011 -9.82 -1.44627e-011 -1.60555e-010 7.13487e-010 1.28578e-009 -1.06 4.19 1.76 16.0097 0.435506 -1.23616 -6.06 0 7.54952e-015 -31.3394 -37.4214 44.5321 1.54188e-012 -11.08 7.30083e-013 15.7283 -17.189 4.96759 2.68372e-011 -9.82 1.13869e-011 3.2844e-010 1.94701e-010 -1.83818e-009 1.0103e-014 4.05 -8.88178e-016 -27.0873 -2.54933 -17.5497 3.27516e-014 5.19 -8.88178e-016 20.7206 -6.39201 -28.1672 
-0.560574 38.5646 15.8802 0.269785 -3.16219 0.124822 3.43 2.13163e-014 -8.88178e-016 8.97302 -32.306 7.48805 -5.28466e-014 -18.47 3.95239e-014 -26.7842 66.1611 20.4699 -6.27942e-013 -17.95 3.95239e-013 0.290907 -8.51157 -0.304909 -3.43 2.13163e-014 6.21725e-015 5.48739 -3.42045 -2.04079 -9.23706e-014 -18.47 -9.23706e-014 1.4132 23.7711 -3.36549 -3.23297e-013 -17.95 -8.8729e-013 2.12262 -15.2816 0.550938 1.88738e-015 4.57 1.06581e-014 4.66037 -1.44366 4.6518 4.32987e-015 6.57 -1.77636e-015 -4.66134 8.99476 6.28891 1.06 4.19 1.76 -15.0673 -0.790155 8.02197 5.81 -7.10543e-015 -1.15463e-014 27.9022 -18.0983 -23.8221 2.67164e-012 -12.08 -9.43245e-013 0.106985 -0.000158315 -0.394759 5.24807e-011 -9.82 -1.44627e-011 -1.60555e-010 7.13487e-010 1.28578e-009 -1.06 4.19 1.76 14.4929 0.400858 -1.3791 -6.06 0 7.54952e-015 -30.9487 -39.6314 45.4876 1.54188e-012 -11.08 7.30083e-013 11.7555 -18.838 4.3636 2.68372e-011 -9.82 1.13869e-011 3.2844e-010 1.94701e-010 -1.83818e-009 1.0103e-014 4.05 -8.88178e-016 -25.6523 -2.18883 -16.3483 3.27516e-014 5.19 -8.88178e-016 19.6163 -5.51512 -26.6445 
-0.62268 38.675 17.2535 0.220552 -2.49441 -0.834262 3.43 2.13163e-014 -8.88178e-016 7.29007 -31.1124 4.39899 -5.28466e-014 -18.47 3.95239e-014 -19.9758 52.7251 12.1933 -6.27942e-013 -17.95 3.95239e-013 0.388323 -9.86554 -0.295252 -3.43 2.13163e-014 6.21725e-015 4.86405 -1.71996 -2.01027 -9.23706e-014 -18.47 -9.23706e-014 2.66217 23.3477 -3.0686 -3.23297e-013 -17.95 -8.8729e-013 1.36169 -14.9734 0.591521 1.88738e-015 4.57 1.06581e-014 6.90396 -1.72639 5.654 4.32987e-015 6.57 -1.77636e-015 -7.50049 8.65628 8.0003 1.06 4.19 1.76 -14.8816 -0.786551 8.05655 5.81 -7.10543e-015 -1.15463e-014 29.5794 -15.8975 -23.0732 2.67164e-012 -12.08 -9.43245e-013 -0.0199754 -0.826708 -0.852757 5.24807e-011 -9.82 -1.44627e-011 -1.60555e-010 7.13487e-010 1.28578e-009 -1.06 4.19 1.76 13.0563 0.35218 -1.71082 -6.06 0 7.54952e-015 -30.6511 -41.3288 45.81 1.54188e-012 -11.08 7.30083e-013 7.50898 -20.1981 3.56222 2.68372e-011 -9.82 1.13869e-011 3.2844e-010 1.94701e-010 -1.83818e-009 1.0103e-014 4.05 -8.88178e-016 -23.7626 -2.75884 -14.8658 3.27516e-014 5.19 -8.88178e-016 18.3094 -4.66783 -24.4183 
-0.666367 38.6894 18.6176 -0.488924 -1.74611 -1.94221 3.43 2.13163e-014 -8.88178e-016 5.29913 -27.9331 1.90734 -5.28466e-014 -18.47 3.95239e-014 -11.8101 35.2348 6.50005 -6.27942e-013 -17.95 3.95239e-013 -0.0490364 -9.63967 -0.293822 -3.43 2.13163e-014 6.21725e-015 4.66648 -0.310534 -1.91248 -9.23706e-014 -18.47 -9.23706e-014 3.9683 23.1682 -3.36272 -3.23297e-013 -17.95 -8.8729e-013 0.549799 -14.5732 0.57844 1.88738e-015 4.57 1.06581e-014 9.37447 -2.67587 6.7302 4.32987e-015 6.57 -1.77636e-015 -9.36565 8.51083 9.27127 1.06 4.19 1.76 -15.1912 -0.83815 8.33867 5.81 -7.10543e-015 -1.15463e-014 30.9485 -14.3557 -21.7048 2.67164e-012 -12.08 -9.43245e-013 -0.0238385 -0.812211 -0.807794 5.24807e-011 -9.82 -1.44627e-011 -1.60555e-010 7.13487e-010 1.28578e-009 -1.06 4.19 1.76 11.7706 0.334404 -1.79515 -6.06 0 7.54952e-015 -30.9471 -42.3684 45.8482 1.54188e-012 -11.08 7.30083e-013 3.26403 -21.5395 2.66081 2.68372e-011 -9.82 1.13869e-011 3.2844e-010 1.94701e-010 -1.83818e-009 1.0103e-014 4.05 -8.88178e-016 -22.2437 -3.60945 -13.0643 3.27516e-014 5.19 -8.88178e-016 16.9114 -3.9759 -21.8884 
-0.705207 38.5801 19.9929 -1.97921 -1.10795 -3.0238 3.43 2.13163e-014 -8.88178e-016 4.07596 -22.166 0.111579 -5.28466e-014 -18.47 3.95239e-014 -5.17208 12.8714 5.83423 -6.27942e-013 -17.95 3.95239e-013 -0.632106 -6.98863 -0.27317 -3.43 2.13163e-014 6.21725e-015 5.31844 0.988399 -2.0109 -9.23706e-014 -18.47 -9.23706e-014 4.98877 23.8302 -2.29357 -3.23297e-013 -17.95 -8.8729e-013 -0.249036 -14.3453 0.507071 1.88738e-015 4.57 1.06581e-014 11.994 -4.11865 7.76277 4.32987e-015 6.57 -1.77636e-015 -10.4295 8.42353 9.91586 1.06 4.19 1.76 -15.2126 -0.858767 8.42006 5.81 -7.10543e-015 -1.15463e-014 31.2888 -13.0401 -19.5498 2.67164e-012 -12.08 -9.43245e-013 0.114269 -0.000169093 -0.164836 5.24807e-011 -9.82 -1.44627e-011 -1.60555e-010 7.13487e-010 1.28578e-009 -1.06 4.19 1.76 11.0284 0.299241 -2.16144 -6.06 0 7.54952e-015 -31.2165 -43.3088 46.2877 1.54188e-012 -11.08 7.30083e-013 -0.843191 -23 1.69082 2.68372e-011 -9.82 1.13869e-011 3.2844e-010 1.94701e-010 -1.83818e-009 1.0103e-014 4.05 -8.88178e-016 -20.3696 -4.72421 -11.2097 3.27516e-014 5.19 -8.88178e-016 15.3188 -3.73059 -19.0894 
-0.713845 38.1442 21.6577 -4.27686 -0.702524 -4.13405 3.43 2.13163e-014 -8.88178e-016 4.94633 -22.2462 1.48369 -5.28466e-014 -18.47 3.95239e-014 -1.57785 4.83664 7.67756 -6.27942e-013 -17.95 3.95239e-013 -0.974717 -9.54102 -0.206039 -3.43 2.13163e-014 6.21725e-015 6.59781 1.86035 -2.78263 -9.23706e-014 -18.47 -9.23706e-014 5.62487 27.3838 -0.441222 -3.23297e-013 -17.95 -8.8729e-013 -1.05096 -15.7242 0.478185 1.88738e-015 4.57 1.06581e-014 15.3607 -5.71502 8.65425 4.32987e-015 6.57 -1.77636e-015 -11.3064 8.43803 10.1729 1.06 4.19 1.76 -15.1915 -0.89234 8.62565 5.81 -7.10543e-015 -1.15463e-014 31.363 -11.6095 -17.0755 2.67164e-012 -12.08 -9.43245e-013 0.528098 -0.000283874 0.629405 5.24807e-011 -9.82 -1.44627e-011 -1.60555e-010 7.13487e-010 1.28578e-009 -1.06 4.19 1.76 10.5802 0.297554 -2.11691 -6.06 0 7.54952e-015 -31.7684 -43.5167 47.2885 1.54188e-012 -11.08 7.30083e-013 -5.28001 -24.7513 0.460932 2.68372e-011 -9.82 1.13869e-011 3.2844e-010 1.94701e-010 -1.83818e-009 1.0103e-014 4.05 -8.88178e-016 -18.3624 -5.9962 -9.31534 3.27516e-014 5.19 -8.88178e-016 13.3972 -3.66498 -16.1397 
